<?xml version="1.0" standalone="no"?>
<!DOCTYPE svg PUBLIC "-//W3C//DTD SVG 20010904//EN"
 "http://www.w3.org/TR/2001/REC-SVG-20010904/DTD/svg10.dtd">
<svg version="1.0" xmlns="http://www.w3.org/2000/svg"
 width="500.000000pt" height="500.000000pt" viewBox="0 0 500.000000 500.000000"
 preserveAspectRatio="xMidYMid meet">
<metadata>
Created by potrace 1.11, written by Peter Selinger 2001-2013
</metadata>
<g transform="translate(0.000000,500.000000) scale(0.100000,-0.100000)"
fill="#000000" stroke="none">
<path d="M0 2500 l0 -2500 2500 0 2500 0 0 2500 0 2500 -2500 0 -2500 0 0
-2500z m3530 1105 l0 -345 -138 0 -139 0 -27 93 c-15 50 -39 129 -52 175 l-25
82 -435 0 -434 0 0 -455 0 -455 470 0 470 0 0 -170 0 -170 -470 0 -470 0 0
-478 0 -478 203 -40 202 -40 3 -127 3 -127 -601 0 -600 0 0 128 0 127 173 40
172 40 3 1102 2 1101 -175 42 -175 42 0 119 0 119 103 1 c56 1 201 5 322 8
121 4 534 8 918 9 l697 2 0 -345z"/>
</g>
</svg>
